<svg xmlns="http://www.w3.org/2000/svg" viewBox="0 0 16 16" shape-rendering="crispEdges">
  <!-- Stem -->
  <rect x="8" y="1" width="1" height="2" fill="#8B5A2B"/>

  <!-- Leaf -->
  <rect x="9" y="1" width="1" height="1" fill="#22c55e"/>
  <rect x="10" y="2" width="1" height="1" fill="#22c55e"/>
  <rect x="11" y="2" width="1" height="1" fill="#16a34a"/>

  <!-- Apple body - top -->
  <rect x="5" y="3" width="1" height="1" fill="#ef4444"/>
  <rect x="6" y="3" width="1" height="1" fill="#f87171"/>
  <rect x="7" y="3" width="1" height="1" fill="#f87171"/>
  <rect x="9" y="3" width="1" height="1" fill="#ef4444"/>
  <rect x="10" y="3" width="1" height="1" fill="#dc2626"/>

  <!-- Apple body - row 2 -->
  <rect x="4" y="4" width="1" height="1" fill="#ef4444"/>
  <rect x="5" y="4" width="1" height="1" fill="#f87171"/>
  <rect x="6" y="4" width="1" height="1" fill="#fca5a5"/>
  <rect x="7" y="4" width="1" height="1" fill="#f87171"/>
  <rect x="8" y="4" width="1" height="1" fill="#ef4444"/>
  <rect x="9" y="4" width="1" height="1" fill="#ef4444"/>
  <rect x="10" y="4" width="1" height="1" fill="#dc2626"/>
  <rect x="11" y="4" width="1" height="1" fill="#dc2626"/>

  <!-- Apple body - row 3 -->
  <rect x="3" y="5" width="1" height="1" fill="#ef4444"/>
  <rect x="4" y="5" width="1" height="1" fill="#f87171"/>
  <rect x="5" y="5" width="1" height="1" fill="#fca5a5"/>
  <rect x="6" y="5" width="1" height="1" fill="#f87171"/>
  <rect x="7" y="5" width="1" height="1" fill="#ef4444"/>
  <rect x="8" y="5" width="1" height="1" fill="#ef4444"/>
  <rect x="9" y="5" width="1" height="1" fill="#dc2626"/>
  <rect x="10" y="5" width="1" height="1" fill="#dc2626"/>
  <rect x="11" y="5" width="1" height="1" fill="#b91c1c"/>
  <rect x="12" y="5" width="1" height="1" fill="#b91c1c"/>

  <!-- Apple body - row 4-7 (main body) -->
  <rect x="3" y="6" width="1" height="1" fill="#ef4444"/>
  <rect x="4" y="6" width="1" height="1" fill="#f87171"/>
  <rect x="5" y="6" width="1" height="1" fill="#f87171"/>
  <rect x="6" y="6" width="1" height="1" fill="#ef4444"/>
  <rect x="7" y="6" width="1" height="1" fill="#ef4444"/>
  <rect x="8" y="6" width="1" height="1" fill="#dc2626"/>
  <rect x="9" y="6" width="1" height="1" fill="#dc2626"/>
  <rect x="10" y="6" width="1" height="1" fill="#dc2626"/>
  <rect x="11" y="6" width="1" height="1" fill="#b91c1c"/>
  <rect x="12" y="6" width="1" height="1" fill="#b91c1c"/>

  <rect x="3" y="7" width="1" height="1" fill="#ef4444"/>
  <rect x="4" y="7" width="1" height="1" fill="#ef4444"/>
  <rect x="5" y="7" width="1" height="1" fill="#ef4444"/>
  <rect x="6" y="7" width="1" height="1" fill="#ef4444"/>
  <rect x="7" y="7" width="1" height="1" fill="#dc2626"/>
  <rect x="8" y="7" width="1" height="1" fill="#dc2626"/>
  <rect x="9" y="7" width="1" height="1" fill="#dc2626"/>
  <rect x="10" y="7" width="1" height="1" fill="#b91c1c"/>
  <rect x="11" y="7" width="1" height="1" fill="#b91c1c"/>
  <rect x="12" y="7" width="1" height="1" fill="#991b1b"/>

  <rect x="3" y="8" width="1" height="1" fill="#ef4444"/>
  <rect x="4" y="8" width="1" height="1" fill="#ef4444"/>
  <rect x="5" y="8" width="1" height="1" fill="#ef4444"/>
  <rect x="6" y="8" width="1" height="1" fill="#dc2626"/>
  <rect x="7" y="8" width="1" height="1" fill="#dc2626"/>
  <rect x="8" y="8" width="1" height="1" fill="#dc2626"/>
  <rect x="9" y="8" width="1" height="1" fill="#b91c1c"/>
  <rect x="10" y="8" width="1" height="1" fill="#b91c1c"/>
  <rect x="11" y="8" width="1" height="1" fill="#991b1b"/>
  <rect x="12" y="8" width="1" height="1" fill="#991b1b"/>

  <rect x="3" y="9" width="1" height="1" fill="#dc2626"/>
  <rect x="4" y="9" width="1" height="1" fill="#ef4444"/>
  <rect x="5" y="9" width="1" height="1" fill="#dc2626"/>
  <rect x="6" y="9" width="1" height="1" fill="#dc2626"/>
  <rect x="7" y="9" width="1" height="1" fill="#dc2626"/>
  <rect x="8" y="9" width="1" height="1" fill="#b91c1c"/>
  <rect x="9" y="9" width="1" height="1" fill="#b91c1c"/>
  <rect x="10" y="9" width="1" height="1" fill="#991b1b"/>
  <rect x="11" y="9" width="1" height="1" fill="#991b1b"/>
  <rect x="12" y="9" width="1" height="1" fill="#7f1d1d"/>

  <!-- Apple body - row 8-9 -->
  <rect x="3" y="10" width="1" height="1" fill="#dc2626"/>
  <rect x="4" y="10" width="1" height="1" fill="#dc2626"/>
  <rect x="5" y="10" width="1" height="1" fill="#dc2626"/>
  <rect x="6" y="10" width="1" height="1" fill="#b91c1c"/>
  <rect x="7" y="10" width="1" height="1" fill="#b91c1c"/>
  <rect x="8" y="10" width="1" height="1" fill="#b91c1c"/>
  <rect x="9" y="10" width="1" height="1" fill="#991b1b"/>
  <rect x="10" y="10" width="1" height="1" fill="#991b1b"/>
  <rect x="11" y="10" width="1" height="1" fill="#7f1d1d"/>
  <rect x="12" y="10" width="1" height="1" fill="#7f1d1d"/>

  <rect x="4" y="11" width="1" height="1" fill="#dc2626"/>
  <rect x="5" y="11" width="1" height="1" fill="#b91c1c"/>
  <rect x="6" y="11" width="1" height="1" fill="#b91c1c"/>
  <rect x="7" y="11" width="1" height="1" fill="#991b1b"/>
  <rect x="8" y="11" width="1" height="1" fill="#991b1b"/>
  <rect x="9" y="11" width="1" height="1" fill="#991b1b"/>
  <rect x="10" y="11" width="1" height="1" fill="#7f1d1d"/>
  <rect x="11" y="11" width="1" height="1" fill="#7f1d1d"/>

  <!-- Apple body - bottom -->
  <rect x="4" y="12" width="1" height="1" fill="#b91c1c"/>
  <rect x="5" y="12" width="1" height="1" fill="#991b1b"/>
  <rect x="6" y="12" width="1" height="1" fill="#991b1b"/>
  <rect x="7" y="12" width="1" height="1" fill="#7f1d1d"/>
  <rect x="8" y="12" width="1" height="1" fill="#7f1d1d"/>
  <rect x="9" y="12" width="1" height="1" fill="#7f1d1d"/>
  <rect x="10" y="12" width="1" height="1" fill="#7f1d1d"/>
  <rect x="11" y="12" width="1" height="1" fill="#7f1d1d"/>

  <rect x="5" y="13" width="1" height="1" fill="#991b1b"/>
  <rect x="6" y="13" width="1" height="1" fill="#7f1d1d"/>
  <rect x="7" y="13" width="1" height="1" fill="#7f1d1d"/>
  <rect x="9" y="13" width="1" height="1" fill="#7f1d1d"/>
  <rect x="10" y="13" width="1" height="1" fill="#7f1d1d"/>
</svg>
